<?xml version="1.0" encoding="UTF-8"?><svg id="Layer_1" xmlns="http://www.w3.org/2000/svg" viewBox="0 0 1080 1080"><defs><style>.cls-1{fill:#839798;}</style></defs><path class="cls-1" d="M292.16,0h35.69l403.54,804.33h-216.87l-41.18-80.43H148.04l-39.8,80.43-108.23,.04,.12-218.3L292.16,0Zm112.55,587.68l-94.71-197.19h-2.75l-96.08,197.19h193.53Z"/><path class="cls-1" d="M483.84,314.66h335.51c164.41,0,260.65,116.08,260.65,244.91,0,142.86-112.28,244.91-260.65,244.91h-140.35v180.6h-195.16V314.66Zm316.79,329.1c50.79,0,78.86-44.65,78.86-89.29,0-42.09-26.73-80.36-78.86-80.36h-121.64v169.65h121.64Z"/></svg>